<svg id="Completed_icon" xmlns="http://www.w3.org/2000/svg" width="22" height="22" viewBox="0 0 22 22">
  <path id="Combined_Shape" data-name="Combined Shape" d="M11,22A11,11,0,0,1,3.222,3.222,11,11,0,1,1,18.778,18.778,10.928,10.928,0,0,1,11,22ZM8.509,10.194h0a.225.225,0,0,0-.162.068l-.666.6a.233.233,0,0,0-.069.163.243.243,0,0,0,.069.168l2.5,2.593a.229.229,0,0,0,.327,0l4.426-4.43a.236.236,0,0,0,0-.331l-.654-.661a.228.228,0,0,0-.163-.068.23.23,0,0,0-.164.068L10.51,11.8a.23.23,0,0,1-.327,0L8.674,10.263a.228.228,0,0,0-.162-.068Z" fill="#ffb19d"/>
</svg>
