<svg xmlns="http://www.w3.org/2000/svg" width="22" height="16.098" viewBox="0 0 22 16.098">
  <g id="Group" transform="translate(0 0)">
    <path id="Path" d="M9.98,9.846a1.378,1.378,0,0,0,.993-.4L20.31.107A1.735,1.735,0,0,0,19.773,0H.724A1.612,1.612,0,0,0,0,.188L8.988,9.417A1.4,1.4,0,0,0,9.98,9.846Z" transform="translate(0.751 0)" fill="#ffb19d"/>
    <path id="Shape" d="M1.476,15.293A1.489,1.489,0,0,1,0,13.817V.671A1.377,1.377,0,0,1,.08.214L8.987,9.391a2.464,2.464,0,0,0,3.488,0L21.839,0A1.455,1.455,0,0,1,22,.671V13.817a1.488,1.488,0,0,1-1.475,1.476Z" transform="translate(0 0.805)" fill="#ffb19d"/>
  </g>
</svg>
