<svg id="Phone_icon" xmlns="http://www.w3.org/2000/svg" width="17.9" height="17.935" viewBox="0 0 17.9 17.935">
  <path id="Path" d="M17.9,13.428v2.7a1.8,1.8,0,0,1-1.962,1.8A17.811,17.811,0,0,1,8.17,15.165a17.55,17.55,0,0,1-5.4-5.4,17.811,17.811,0,0,1-2.763-7.8A1.8,1.8,0,0,1,1.8,0H4.5A1.8,1.8,0,0,1,6.3,1.548a11.556,11.556,0,0,0,.63,2.529,1.8,1.8,0,0,1-.4,1.9L5.38,7.119a14.4,14.4,0,0,0,5.4,5.4l1.143-1.143a1.8,1.8,0,0,1,1.9-.4,11.556,11.556,0,0,0,2.529.63A1.8,1.8,0,0,1,17.9,13.428Z" transform="translate(0 0)" fill="#ffb19d"/>
</svg>
